<svg xmlns="http://www.w3.org/2000/svg" width="1600" height="900" viewBox="0 0 1600 900"><defs><radialGradient id="bg"><stop stop-color="#102333"/><stop offset="1" stop-color="#02060a"/></radialGradient></defs><rect width="1600" height="900" fill="url(#bg)"/><text x="82" y="92" fill="#55d9ff" font-family="monospace" font-size="22" letter-spacing="4">UAP ATLAS · BF-1980-PE-01</text><g opacity=".22" stroke="#47d7ff" fill="none"><path d="M80 190H1520M80 260H1520M80 330H1520M80 400H1520M80 470H1520M80 540H1520M80 610H1520"/><path d="M220 150V650M420 150V650M620 150V650M820 150V650M1020 150V650M1220 150V650M1420 150V650"/></g><path d="M170 520L680 520 820 455 875 470 740 525 980 560 950 585 700 550 570 610 520 610 600 548 170 548Z" fill="#24384b"/><circle cx="1180" cy="345" r="108" fill="#e9a763" opacity=".28"/><circle cx="1180" cy="345" r="72" fill="#e8c59c"/><g stroke="#ff7b52" stroke-width="4" opacity=".8"><path d="M850 500L1090 395M870 518L1100 407M890 536L1110 420"/></g><rect y="690" width="1600" height="210" fill="#020609" opacity=".95"/><text x="82" y="760" fill="#f2f6f8" font-family="Arial,sans-serif" font-size="42" font-weight="700">LA JOYA · INTERCEPT ATTEMPT</text><text x="82" y="810" fill="#8ba0ae" font-family="monospace" font-size="21">Su-22 engagement report · Peru · 1980</text><text x="82" y="858" fill="#ffbf66" font-family="monospace" font-size="19" letter-spacing="2">EDITORIAL RECONSTRUCTION · NOT PRIMARY EVENT IMAGERY</text><text x="1518" y="858" text-anchor="end" fill="#657783" font-family="monospace" font-size="15">SOURCE-DERIVED · 1600×900</text></svg>