<svg xmlns="http://www.w3.org/2000/svg" width="1600" height="900" viewBox="0 0 1600 900">
<defs>
 <linearGradient id="bg" x2="0" y2="1"><stop stop-color="#02070c"/><stop offset=".55" stop-color="#07121a"/><stop offset="1" stop-color="#010305"/></linearGradient>
 <linearGradient id="sea" x2="0" y2="1"><stop stop-color="#0b2732"/><stop offset="1" stop-color="#02070b"/></linearGradient>
 <linearGradient id="thermal"><stop stop-color="#071018"/><stop offset=".55" stop-color="#24333b"/><stop offset="1" stop-color="#03070a"/></linearGradient>
 <linearGradient id="day" x2="0" y2="1"><stop stop-color="#4598bf"/><stop offset=".62" stop-color="#a6d5df"/><stop offset="1" stop-color="#d8e9e8"/></linearGradient>
 <linearGradient id="metal"><stop stop-color="#07141d"/><stop offset=".38" stop-color="#d6f3f7"/><stop offset=".58" stop-color="#516c76"/><stop offset="1" stop-color="#050a0d"/></linearGradient>
 <radialGradient id="hot"><stop stop-color="#fff"/><stop offset=".25" stop-color="#ffd288"/><stop offset=".6" stop-color="#ff6839" stop-opacity=".6"/><stop offset="1" stop-color="#ff3217" stop-opacity="0"/></radialGradient>
 <filter id="glow"><feGaussianBlur stdDeviation="8" result="b"/><feMerge><feMergeNode in="b"/><feMergeNode in="SourceGraphic"/></feMerge></filter>
 <filter id="shadow"><feDropShadow dx="0" dy="30" stdDeviation="24" flood-opacity=".65"/></filter>
 <filter id="grain"><feTurbulence baseFrequency=".8" numOctaves="3" stitchTiles="stitch"/><feColorMatrix type="saturate" values="0"/><feComponentTransfer><feFuncA type="table" tableValues="0 .06"/></feComponentTransfer></filter>
</defs>
<rect width="1600" height="900" fill="url(#bg)"/><rect width="1600" height="900" fill="url(#day)"/><g opacity=".55" fill="#fff"><ellipse cx="270" cy="225" rx="190" ry="45"/><ellipse cx="1240" cy="180" rx="240" ry="55"/></g><g transform="translate(825 390) rotate(-8)" filter="url(#shadow)"><path d="M-210 25 Q-120-75 35-62 Q170-45 245 10 Q135 42 8 55 Q-125 65-210 25Z" fill="url(#metal)" stroke="#efffff" stroke-width="4"/><ellipse cx="30" cy="-43" rx="82" ry="32" fill="#9ee9f4" opacity=".45"/><path d="M-145 22Q20 75 175 15" stroke="#071118" stroke-width="7" opacity=".5" fill="none"/></g><path d="M0 690 Q400 565 770 665 T1600 635V900H0Z" fill="#1a2627"/>
<rect width="1600" height="900" filter="url(#grain)" opacity=".55"/>
<g font-family="Inter,Helvetica,Arial,sans-serif"><text x="76" y="92" fill="#7cecff" font-size="18" letter-spacing="5">UAP ATLAS · VISUAL RECONSTRUCTION</text><text x="76" y="142" fill="#f5fbff" font-size="34" font-weight="600">Robins AFB — Unconventional Object</text><text x="76" y="830" fill="#a7b8c0" font-size="16" letter-spacing="2">EDITORIAL RECONSTRUCTION · NOT PRIMARY EVENT IMAGERY</text></g>
<path d="M76 170H530" stroke="#65e8ff" opacity=".42"/><path d="M76 790H1524" stroke="#90dbe8" opacity=".14"/>
</svg>