<svg xmlns="http://www.w3.org/2000/svg" width="1600" height="900" viewBox="0 0 1600 900"><defs><radialGradient id="bg"><stop stop-color="#102333"/><stop offset="1" stop-color="#02060a"/></radialGradient></defs><rect width="1600" height="900" fill="url(#bg)"/><text x="82" y="92" fill="#55d9ff" font-family="monospace" font-size="22" letter-spacing="4">UAP ATLAS · BF-1952-R5D-01</text><g opacity=".22" stroke="#47d7ff" fill="none"><path d="M80 190H1520M80 260H1520M80 330H1520M80 400H1520M80 470H1520M80 540H1520M80 610H1520"/><path d="M220 150V650M420 150V650M620 150V650M820 150V650M1020 150V650M1220 150V650M1420 150V650"/></g><path d="M180 480L630 480 790 410 850 425 720 485 1030 525 995 552 690 520 565 590 505 590 590 520 180 520Z" fill="#283b4c"/><circle cx="1150" cy="300" r="74" fill="#fff"/><circle cx="1150" cy="300" r="150" fill="#8bdfff" opacity=".17"/><circle cx="1090" cy="300" r="10" fill="#ff4a4a"/><circle cx="1210" cy="300" r="10" fill="#ff4a4a"/><path d="M1180 205Q1380 370 1210 560Q1040 690 820 585" stroke="#50d8ff" stroke-width="5" stroke-dasharray="14 15" fill="none" opacity=".7"/><rect y="690" width="1600" height="210" fill="#020609" opacity=".95"/><text x="82" y="760" fill="#f2f6f8" font-family="Arial,sans-serif" font-size="42" font-weight="700">R5D · BRIGHT DISC CIRCLING AIRCRAFT</text><text x="82" y="810" fill="#8ba0ae" font-family="monospace" font-size="21">Pilot report · white disc · blinking red lights · 1952</text><text x="82" y="858" fill="#ffbf66" font-family="monospace" font-size="19" letter-spacing="2">EDITORIAL RECONSTRUCTION · NOT PRIMARY EVENT IMAGERY</text><text x="1518" y="858" text-anchor="end" fill="#657783" font-family="monospace" font-size="15">SOURCE-DERIVED · 1600×900</text></svg>