<svg xmlns="http://www.w3.org/2000/svg" width="1600" height="900" viewBox="0 0 1600 900"><defs><radialGradient id="bg"><stop stop-color="#102333"/><stop offset="1" stop-color="#02060a"/></radialGradient></defs><rect width="1600" height="900" fill="url(#bg)"/><text x="82" y="92" fill="#55d9ff" font-family="monospace" font-size="22" letter-spacing="4">UAP ATLAS · BF-1986-JAL-01</text><g opacity=".22" stroke="#47d7ff" fill="none"><path d="M80 190H1520M80 260H1520M80 330H1520M80 400H1520M80 470H1520M80 540H1520M80 610H1520"/><path d="M220 150V650M420 150V650M620 150V650M820 150V650M1020 150V650M1220 150V650M1420 150V650"/></g><path d="M0 640L430 560 720 585 980 530 1600 610V900H0Z" fill="#07121d"/><path d="M210 585L620 585 760 530 810 540 720 585 900 610 875 630 650 607 560 650 520 648 565 605 210 605Z" fill="#213649"/><ellipse cx="1120" cy="330" rx="245" ry="95" fill="#ffb44b" opacity=".18"/><ellipse cx="1120" cy="330" rx="170" ry="52" fill="#ffcf74" opacity=".75"/><circle cx="980" cy="485" r="18" fill="#ffd796"/><circle cx="1060" cy="500" r="12" fill="#ffd796"/><rect y="690" width="1600" height="210" fill="#020609" opacity=".95"/><text x="82" y="760" fill="#f2f6f8" font-family="Arial,sans-serif" font-size="42" font-weight="700">JAL 1628 · ALASKA ENCOUNTER</text><text x="82" y="810" fill="#8ba0ae" font-family="monospace" font-size="21">Aircrew visual report · radar discussion · 1986</text><text x="82" y="858" fill="#ffbf66" font-family="monospace" font-size="19" letter-spacing="2">EDITORIAL RECONSTRUCTION · NOT PRIMARY EVENT IMAGERY</text><text x="1518" y="858" text-anchor="end" fill="#657783" font-family="monospace" font-size="15">SOURCE-DERIVED · 1600×900</text></svg>