<svg xmlns="http://www.w3.org/2000/svg" width="1600" height="900" viewBox="0 0 1600 900"><defs><radialGradient id="bg"><stop stop-color="#102333"/><stop offset="1" stop-color="#02060a"/></radialGradient></defs><rect width="1600" height="900" fill="url(#bg)"/><text x="82" y="92" fill="#55d9ff" font-family="monospace" font-size="22" letter-spacing="4">UAP ATLAS · BF-1967-SH-01</text><g opacity=".22" stroke="#47d7ff" fill="none"><path d="M80 190H1520M80 260H1520M80 330H1520M80 400H1520M80 470H1520M80 540H1520M80 610H1520"/><path d="M220 150V650M420 150V650M620 150V650M820 150V650M1020 150V650M1220 150V650M1420 150V650"/></g><path d="M0 560 Q180 520 360 565 T720 558 T1080 570 T1440 550 T1600 570V900H0Z" fill="#031a29"/><g fill="none" stroke="#8ae9ff"><path d="M710 550Q800 410 890 550" stroke-width="10"/><path d="M665 565Q800 470 935 565M620 585Q800 520 980 585" opacity=".65"/></g><ellipse cx="800" cy="552" rx="38" ry="15" fill="#fff"/><circle cx="800" cy="552" r="80" fill="#45d9ff" opacity=".18"/><rect y="690" width="1600" height="210" fill="#020609" opacity=".95"/><text x="82" y="760" fill="#f2f6f8" font-family="Arial,sans-serif" font-size="42" font-weight="700">SHAG HARBOUR · WATER IMPACT</text><text x="82" y="810" fill="#8ba0ae" font-family="monospace" font-size="21">Reported bright splash · surface light · 1967</text><text x="82" y="858" fill="#ffbf66" font-family="monospace" font-size="19" letter-spacing="2">EDITORIAL RECONSTRUCTION · NOT PRIMARY EVENT IMAGERY</text><text x="1518" y="858" text-anchor="end" fill="#657783" font-family="monospace" font-size="15">SOURCE-DERIVED · 1600×900</text></svg>