<svg xmlns="http://www.w3.org/2000/svg" width="1600" height="900" viewBox="0 0 1600 900"><defs><radialGradient id="bg"><stop stop-color="#102333"/><stop offset="1" stop-color="#02060a"/></radialGradient></defs><rect width="1600" height="900" fill="url(#bg)"/><text x="82" y="92" fill="#55d9ff" font-family="monospace" font-size="22" letter-spacing="4">UAP ATLAS · BF-1952-BE-01</text><g opacity=".22" stroke="#47d7ff" fill="none"><path d="M80 190H1520M80 260H1520M80 330H1520M80 400H1520M80 470H1520M80 540H1520M80 610H1520"/><path d="M220 150V650M420 150V650M620 150V650M820 150V650M1020 150V650M1220 150V650M1420 150V650"/></g><g fill="#071018" stroke="#94a7b5" stroke-width="4"><path d="M420 350Q560 265 710 350V465Q560 540 420 455Z"/><path d="M890 350Q1035 265 1180 350V455Q1035 540 890 465Z"/></g><path d="M710 405Q800 345 890 405M710 430Q800 490 890 430" stroke="#849baa" stroke-width="8" fill="none" opacity=".65"/><path d="M360 500Q520 650 690 590M1240 500Q1080 650 910 590" stroke="#8799a4" stroke-width="8" fill="none" opacity=".25"/><rect y="690" width="1600" height="210" fill="#020609" opacity=".95"/><text x="82" y="760" fill="#f2f6f8" font-family="Arial,sans-serif" font-size="42" font-weight="700">BETHESDA · VARIABLE-FORM OBJECTS</text><text x="82" y="810" fill="#8ba0ae" font-family="monospace" font-size="21">Two dark forms · merge / separate / relocate · 1952</text><text x="82" y="858" fill="#ffbf66" font-family="monospace" font-size="19" letter-spacing="2">EDITORIAL RECONSTRUCTION · NOT PRIMARY EVENT IMAGERY</text><text x="1518" y="858" text-anchor="end" fill="#657783" font-family="monospace" font-size="15">SOURCE-DERIVED · 1600×900</text></svg>