<svg xmlns="http://www.w3.org/2000/svg" width="1600" height="900" viewBox="0 0 1600 900"><defs><radialGradient id="bg"><stop stop-color="#102333"/><stop offset="1" stop-color="#02060a"/></radialGradient></defs><rect width="1600" height="900" fill="url(#bg)"/><text x="82" y="92" fill="#55d9ff" font-family="monospace" font-size="22" letter-spacing="4">UAP ATLAS · BF-1968-HIM-07</text><g opacity=".22" stroke="#47d7ff" fill="none"><path d="M80 190H1520M80 260H1520M80 330H1520M80 400H1520M80 470H1520M80 540H1520M80 610H1520"/><path d="M220 150V650M420 150V650M620 150V650M820 150V650M1020 150V650M1220 150V650M1420 150V650"/></g><path d="M0 710L240 490 390 630 590 380 760 650 980 450 1150 680 1380 520 1600 690V900H0Z" fill="#0a1a27"/><path d="M590 380L530 510 600 485 650 555" fill="none" stroke="#a5c7da" opacity=".55"/><path d="M1260 150Q1100 255 980 410" stroke="#ff9b45" stroke-width="18"/><path d="M1260 150Q1100 255 980 410" stroke="#fff1b5" stroke-width="5"/><g fill="#ffcc78"><circle cx="960" cy="425" r="12"/><circle cx="925" cy="448" r="8"/><circle cx="890" cy="465" r="5"/></g><rect y="690" width="1600" height="210" fill="#020609" opacity=".95"/><text x="82" y="760" fill="#f2f6f8" font-family="Arial,sans-serif" font-size="42" font-weight="700">KASKI · BLAZING OBJECT REPORT</text><text x="82" y="810" fill="#8ba0ae" font-family="monospace" font-size="21">Reported disintegration over Nepal · 1968</text><text x="82" y="858" fill="#ffbf66" font-family="monospace" font-size="19" letter-spacing="2">EDITORIAL RECONSTRUCTION · NOT PRIMARY EVENT IMAGERY</text><text x="1518" y="858" text-anchor="end" fill="#657783" font-family="monospace" font-size="15">SOURCE-DERIVED · 1600×900</text></svg>