<svg xmlns="http://www.w3.org/2000/svg" width="1600" height="900" viewBox="0 0 1600 900"><defs><radialGradient id="bg"><stop stop-color="#102333"/><stop offset="1" stop-color="#02060a"/></radialGradient></defs><rect width="1600" height="900" fill="url(#bg)"/><text x="82" y="92" fill="#55d9ff" font-family="monospace" font-size="22" letter-spacing="4">UAP ATLAS · BF-1965-G7-01</text><g opacity=".22" stroke="#47d7ff" fill="none"><path d="M80 190H1520M80 260H1520M80 330H1520M80 400H1520M80 470H1520M80 540H1520M80 610H1520"/><path d="M220 150V650M420 150V650M620 150V650M820 150V650M1020 150V650M1220 150V650M1420 150V650"/></g><circle cx="330" cy="300" r="125" fill="#193953"/><path d="M260 275Q330 220 400 275V400Q330 450 260 400Z" fill="#c4d1d9"/><rect x="710" y="280" width="220" height="42" rx="20" fill="#8fa5b2"/><g fill="#d9f5ff"><circle cx="620" cy="400" r="5"/><circle cx="670" cy="440" r="4"/><circle cx="740" cy="390" r="3"/><circle cx="790" cy="455" r="5"/><circle cx="860" cy="420" r="4"/><circle cx="930" cy="470" r="3"/></g><circle cx="1250" cy="345" r="18" fill="#fff"/><circle cx="1250" cy="345" r="70" fill="#5edcff" opacity=".16"/><path d="M1000 560H1360" stroke="#4ed9ff" opacity=".4"/><text x="1180" y="600" fill="#89a9ba" font-size="22" font-family="monospace">THIRD REPORTED OBJECT</text><rect y="690" width="1600" height="210" fill="#020609" opacity=".95"/><text x="82" y="760" fill="#f2f6f8" font-family="Arial,sans-serif" font-size="42" font-weight="700">GEMINI 7 · REPORTED 'BOGEY'</text><text x="82" y="810" fill="#8ba0ae" font-family="monospace" font-size="21">Booster · particle field · third reported object · 1965</text><text x="82" y="858" fill="#ffbf66" font-family="monospace" font-size="19" letter-spacing="2">EDITORIAL RECONSTRUCTION · NOT PRIMARY EVENT IMAGERY</text><text x="1518" y="858" text-anchor="end" fill="#657783" font-family="monospace" font-size="15">SOURCE-DERIVED · 1600×900</text></svg>