<svg xmlns="http://www.w3.org/2000/svg" width="1600" height="900" viewBox="0 0 1600 900">
<defs><linearGradient id="bg" x1="0" y1="0" x2="1" y2="1"><stop stop-color="#020609"/><stop offset=".58" stop-color="#07121a"/><stop offset="1" stop-color="#030507"/></linearGradient><linearGradient id="bronze" x1="0" y1="0" x2="1" y2="1"><stop stop-color="#4b2917"/><stop offset=".48" stop-color="#b8793e"/><stop offset="1" stop-color="#5a321d"/></linearGradient><filter id="glow"><feGaussianBlur stdDeviation="10" result="b"/><feMerge><feMergeNode in="b"/><feMergeNode in="SourceGraphic"/></feMerge></filter><filter id="grain"><feTurbulence baseFrequency=".8" numOctaves="2" seed="7"/><feColorMatrix values="1 0 0 0 0 0 1 0 0 0 0 0 1 0 0 0 0 0 .05 0"/></filter></defs>
<rect width="1600" height="900" fill="url(#bg)"/><circle cx="1280" cy="150" r="310" fill="#0d2735" opacity=".2"/><path d="M0 720Q300 650 610 720T1220 700T1600 720" fill="none" stroke="#143041" stroke-width="3"/><path d="M330 470h330l105-80 45 20-75 82H550l-110 82H320z" fill="#111b25" stroke="#8098a8" stroke-width="4"/><path d="M500 448h120l35-95h22l-18 95M250 395h690M580 570v70m-70 0h140" fill="none" stroke="#8098a8" stroke-width="6"/><g transform="translate(1070 330) rotate(-12)"><rect x="-170" y="-42" width="340" height="84" rx="42" fill="#6c7477" stroke="#ccd4d4" stroke-width="4"/><circle cx="-145" cy="0" r="24" fill="#ff5b57" filter="url(#glow)"/><circle cx="145" cy="0" r="24" fill="#7aff91" filter="url(#glow)"/></g><rect width="1600" height="900" filter="url(#grain)" opacity=".22"/><text x="70" y="98" fill="#a9c1d0" font-family="Arial,Helvetica,sans-serif" font-size="24" letter-spacing="7">UAP ATLAS · VISUAL DOSSIER</text><text x="70" y="790" fill="#f0f5f7" font-family="Arial,Helvetica,sans-serif" font-size="42" font-weight="700" letter-spacing="1">COYNE HELICOPTER NEAR-COLLISION</text><text x="70" y="842" fill="#67d7ff" font-family="Menlo,monospace" font-size="21" letter-spacing="2">EDITORIAL RECONSTRUCTION · NOT PRIMARY EVENT IMAGERY</text></svg>