<svg xmlns="http://www.w3.org/2000/svg" width="1600" height="900" viewBox="0 0 1600 900"><defs><radialGradient id="bg"><stop stop-color="#102333"/><stop offset="1" stop-color="#02060a"/></radialGradient></defs><rect width="1600" height="900" fill="url(#bg)"/><text x="82" y="92" fill="#55d9ff" font-family="monospace" font-size="22" letter-spacing="4">UAP ATLAS · BF-1994-KZ-01</text><g opacity=".22" stroke="#47d7ff" fill="none"><path d="M80 190H1520M80 260H1520M80 330H1520M80 400H1520M80 470H1520M80 540H1520M80 610H1520"/><path d="M220 150V650M420 150V650M620 150V650M820 150V650M1020 150V650M1220 150V650M1420 150V650"/></g><path d="M140 520L600 520 730 455 790 465 690 523 980 555 950 580 660 550 560 610 505 610 570 548 140 548Z" fill="#263c4d"/><path d="M1110 360Q1300 260 1440 190" stroke="#c7e8ff" stroke-width="7" fill="none"/><path d="M1080 405Q1320 300 1420 155" stroke="#74d9ff" stroke-width="4" fill="none" opacity=".5"/><ellipse cx="1100" cy="385" rx="95" ry="38" fill="#fff3a6"/><path d="M1130 380Q1230 330 1325 370Q1230 410 1130 380Z" fill="#75dcff" opacity=".35"/><rect y="690" width="1600" height="210" fill="#020609" opacity=".95"/><text x="82" y="760" fill="#f2f6f8" font-family="Arial,sans-serif" font-size="42" font-weight="700">KAZAKHSTAN · HIGH-ALTITUDE LIGHT</text><text x="82" y="810" fill="#8ba0ae" font-family="monospace" font-size="21">Commercial aircrew report · forty-minute encounter · 1994</text><text x="82" y="858" fill="#ffbf66" font-family="monospace" font-size="19" letter-spacing="2">EDITORIAL RECONSTRUCTION · NOT PRIMARY EVENT IMAGERY</text><text x="1518" y="858" text-anchor="end" fill="#657783" font-family="monospace" font-size="15">SOURCE-DERIVED · 1600×900</text></svg>