<svg xmlns="http://www.w3.org/2000/svg" width="1600" height="900" viewBox="0 0 1600 900">
<defs><linearGradient id="bg" x1="0" y1="0" x2="1" y2="1"><stop stop-color="#020609"/><stop offset=".58" stop-color="#07121a"/><stop offset="1" stop-color="#030507"/></linearGradient><linearGradient id="bronze" x1="0" y1="0" x2="1" y2="1"><stop stop-color="#4b2917"/><stop offset=".48" stop-color="#b8793e"/><stop offset="1" stop-color="#5a321d"/></linearGradient><filter id="glow"><feGaussianBlur stdDeviation="10" result="b"/><feMerge><feMergeNode in="b"/><feMergeNode in="SourceGraphic"/></feMerge></filter><filter id="grain"><feTurbulence baseFrequency=".8" numOctaves="2" seed="7"/><feColorMatrix values="1 0 0 0 0 0 1 0 0 0 0 0 1 0 0 0 0 0 .05 0"/></filter></defs>
<rect width="1600" height="900" fill="url(#bg)"/><circle cx="1280" cy="150" r="310" fill="#0d2735" opacity=".2"/><path d="M0 720Q300 650 610 720T1220 700T1600 720" fill="none" stroke="#143041" stroke-width="3"/><path d="M0 650Q300 560 610 650T1200 640T1600 650V900H0z" fill="#090d11"/><g fill="#16212a" stroke="#6f899c" stroke-width="3"><rect x="250" y="505" width="120" height="110"/><rect x="510" y="535" width="120" height="90"/><rect x="850" y="500" width="120" height="118"/><rect x="1150" y="540" width="120" height="88"/></g><g fill="#ff5b57" filter="url(#glow)"><circle cx="310" cy="560" r="12"/><circle cx="570" cy="580" r="12"/><circle cx="910" cy="558" r="12"/><circle cx="1210" cy="585" r="12"/></g><circle cx="790" cy="260" r="24" fill="#e8f7ff" filter="url(#glow)"/><rect width="1600" height="900" filter="url(#grain)" opacity=".22"/><text x="70" y="98" fill="#a9c1d0" font-family="Arial,Helvetica,sans-serif" font-size="24" letter-spacing="7">UAP ATLAS · VISUAL DOSSIER</text><text x="70" y="790" fill="#f0f5f7" font-family="Arial,Helvetica,sans-serif" font-size="42" font-weight="700" letter-spacing="1">MALMSTROM · TEN SITES LOST ALERT</text><text x="70" y="842" fill="#67d7ff" font-family="Menlo,monospace" font-size="21" letter-spacing="2">EDITORIAL RECONSTRUCTION · NOT PRIMARY EVENT IMAGERY</text></svg>