<svg xmlns="http://www.w3.org/2000/svg" width="1600" height="900" viewBox="0 0 1600 900"><defs><radialGradient id="bg"><stop stop-color="#102333"/><stop offset="1" stop-color="#02060a"/></radialGradient></defs><rect width="1600" height="900" fill="url(#bg)"/><text x="82" y="92" fill="#55d9ff" font-family="monospace" font-size="22" letter-spacing="4">UAP ATLAS · BF-2006-OH-01</text><g opacity=".22" stroke="#47d7ff" fill="none"><path d="M80 190H1520M80 260H1520M80 330H1520M80 400H1520M80 470H1520M80 540H1520M80 610H1520"/><path d="M220 150V650M420 150V650M620 150V650M820 150V650M1020 150V650M1220 150V650M1420 150V650"/></g><path d="M0 530H1600V900H0Z" fill="#06121d"/><path d="M90 600H850V700H90ZM240 505H690V600H240Z" fill="#172a39"/><g fill="#55c9e8" opacity=".45"><rect x="130" y="625" width="85" height="28"/><rect x="250" y="625" width="85" height="28"/><rect x="370" y="625" width="85" height="28"/></g><path d="M760 310Q980 210 1200 310Q990 388 760 310Z" fill="#aab7bf"/><ellipse cx="980" cy="310" rx="220" ry="25" fill="#d7e4ea" opacity=".65"/><path d="M840 190Q980 120 1120 190" stroke="#5d7180" stroke-width="26" fill="none" opacity=".5"/><rect y="690" width="1600" height="210" fill="#020609" opacity=".95"/><text x="82" y="760" fill="#f2f6f8" font-family="Arial,sans-serif" font-size="42" font-weight="700">O'HARE · DISC ABOVE GATE C17</text><text x="82" y="810" fill="#8ba0ae" font-family="monospace" font-size="21">Airport personnel reports · overcast departure · 2006</text><text x="82" y="858" fill="#ffbf66" font-family="monospace" font-size="19" letter-spacing="2">EDITORIAL RECONSTRUCTION · NOT PRIMARY EVENT IMAGERY</text><text x="1518" y="858" text-anchor="end" fill="#657783" font-family="monospace" font-size="15">SOURCE-DERIVED · 1600×900</text></svg>