<svg xmlns="http://www.w3.org/2000/svg" width="1600" height="900" viewBox="0 0 1600 900">
<defs><linearGradient id="bg" x1="0" y1="0" x2="1" y2="1"><stop stop-color="#020609"/><stop offset=".58" stop-color="#07121a"/><stop offset="1" stop-color="#030507"/></linearGradient><linearGradient id="bronze" x1="0" y1="0" x2="1" y2="1"><stop stop-color="#4b2917"/><stop offset=".48" stop-color="#b8793e"/><stop offset="1" stop-color="#5a321d"/></linearGradient><filter id="glow"><feGaussianBlur stdDeviation="10" result="b"/><feMerge><feMergeNode in="b"/><feMergeNode in="SourceGraphic"/></feMerge></filter><filter id="grain"><feTurbulence baseFrequency=".8" numOctaves="2" seed="7"/><feColorMatrix values="1 0 0 0 0 0 1 0 0 0 0 0 1 0 0 0 0 0 .05 0"/></filter></defs>
<rect width="1600" height="900" fill="url(#bg)"/><circle cx="1280" cy="150" r="310" fill="#0d2735" opacity=".2"/><path d="M0 720Q300 650 610 720T1220 700T1600 720" fill="none" stroke="#143041" stroke-width="3"/><path d="M520 492h250l80-58 36 16-42 58H700l-78 56H510z" fill="#111b25" stroke="#9bb4c5" stroke-width="4"/><path d="M645 473h90l34-72h20l-18 72" fill="none" stroke="#9bb4c5" stroke-width="6"/><path d="M470 438h520M720 565v58m-65 0h135" stroke="#668296" stroke-width="5"/><g fill="#ffd07a" filter="url(#glow)"><circle cx="1030" cy="260" r="28"/><circle cx="1180" cy="390" r="18"/><circle cx="940" cy="510" r="14"/></g><rect width="1600" height="900" filter="url(#grain)" opacity=".22"/><text x="70" y="98" fill="#a9c1d0" font-family="Arial,Helvetica,sans-serif" font-size="24" letter-spacing="7">UAP ATLAS · VISUAL DOSSIER</text><text x="70" y="790" fill="#f0f5f7" font-family="Arial,Helvetica,sans-serif" font-size="42" font-weight="700" letter-spacing="1">SENIOR USIC TEST-RANGE ORB ENCOUNTERS</text><text x="70" y="842" fill="#67d7ff" font-family="Menlo,monospace" font-size="21" letter-spacing="2">EDITORIAL RECONSTRUCTION · NOT PRIMARY EVENT IMAGERY</text></svg>