<svg xmlns="http://www.w3.org/2000/svg" width="1600" height="900" viewBox="0 0 1600 900">
<defs>
 <linearGradient id="bg" x2="0" y2="1"><stop stop-color="#02070c"/><stop offset=".55" stop-color="#07121a"/><stop offset="1" stop-color="#010305"/></linearGradient>
 <linearGradient id="sea" x2="0" y2="1"><stop stop-color="#0b2732"/><stop offset="1" stop-color="#02070b"/></linearGradient>
 <linearGradient id="thermal"><stop stop-color="#071018"/><stop offset=".55" stop-color="#24333b"/><stop offset="1" stop-color="#03070a"/></linearGradient>
 <linearGradient id="day" x2="0" y2="1"><stop stop-color="#4598bf"/><stop offset=".62" stop-color="#a6d5df"/><stop offset="1" stop-color="#d8e9e8"/></linearGradient>
 <linearGradient id="metal"><stop stop-color="#07141d"/><stop offset=".38" stop-color="#d6f3f7"/><stop offset=".58" stop-color="#516c76"/><stop offset="1" stop-color="#050a0d"/></linearGradient>
 <radialGradient id="hot"><stop stop-color="#fff"/><stop offset=".25" stop-color="#ffd288"/><stop offset=".6" stop-color="#ff6839" stop-opacity=".6"/><stop offset="1" stop-color="#ff3217" stop-opacity="0"/></radialGradient>
 <filter id="glow"><feGaussianBlur stdDeviation="8" result="b"/><feMerge><feMergeNode in="b"/><feMergeNode in="SourceGraphic"/></feMerge></filter>
 <filter id="shadow"><feDropShadow dx="0" dy="30" stdDeviation="24" flood-opacity=".65"/></filter>
 <filter id="grain"><feTurbulence baseFrequency=".8" numOctaves="3" stitchTiles="stitch"/><feColorMatrix type="saturate" values="0"/><feComponentTransfer><feFuncA type="table" tableValues="0 .06"/></feComponentTransfer></filter>
</defs>
<rect width="1600" height="900" fill="url(#bg)"/><path d="M0 650 Q350 540 720 615 T1600 570 V900 H0Z" fill="#121a20"/><g opacity=".7" stroke="#8ef4ff" fill="none"><path d="M800 180v470M510 415h580"/><rect x="430" y="160" width="740" height="510" rx="8" stroke-dasharray="18 12"/><circle cx="800" cy="415" r="120"/></g><circle cx="560" cy="330" r="10" fill="#fff" filter="url(#glow)"/><circle cx="560" cy="330" r="40" fill="#76eaff" opacity=".12"/><circle cx="650" cy="370" r="7" fill="#fff" filter="url(#glow)"/><circle cx="650" cy="370" r="28" fill="#76eaff" opacity=".12"/><circle cx="740" cy="310" r="13" fill="#fff" filter="url(#glow)"/><circle cx="740" cy="310" r="52" fill="#76eaff" opacity=".12"/><circle cx="845" cy="395" r="8" fill="#fff" filter="url(#glow)"/><circle cx="845" cy="395" r="32" fill="#76eaff" opacity=".12"/><circle cx="930" cy="340" r="11" fill="#fff" filter="url(#glow)"/><circle cx="930" cy="340" r="44" fill="#76eaff" opacity=".12"/><circle cx="1030" cy="420" r="7" fill="#fff" filter="url(#glow)"/><circle cx="1030" cy="420" r="28" fill="#76eaff" opacity=".12"/><circle cx="1110" cy="355" r="9" fill="#fff" filter="url(#glow)"/><circle cx="1110" cy="355" r="36" fill="#76eaff" opacity=".12"/><circle cx="1225" cy="390" r="6" fill="#fff" filter="url(#glow)"/><circle cx="1225" cy="390" r="24" fill="#76eaff" opacity=".12"/><path d="M410 720 L1230 255" stroke="#7cecff" stroke-width="2" opacity=".25"/>
<rect width="1600" height="900" filter="url(#grain)" opacity=".55"/>
<g font-family="Inter,Helvetica,Arial,sans-serif"><text x="76" y="92" fill="#7cecff" font-size="18" letter-spacing="5">UAP ATLAS · VISUAL RECONSTRUCTION</text><text x="76" y="142" fill="#f5fbff" font-size="34" font-weight="600">Middle East Multi-UAP Observation</text><text x="76" y="830" fill="#a7b8c0" font-size="16" letter-spacing="2">EDITORIAL RECONSTRUCTION · NOT PRIMARY EVENT IMAGERY</text></g>
<path d="M76 170H530" stroke="#65e8ff" opacity=".42"/><path d="M76 790H1524" stroke="#90dbe8" opacity=".14"/>
</svg>